<svg xmlns="http://www.w3.org/2000/svg" xml:space="preserve" id="Layer_1" x="0" y="0" style="enable-background:new 0 0 890.7 317.8" version="1.1" viewBox="0 0 890.7 317.8"><style>.st0{fill:#fff}</style><path d="M47.8 201.8C19.6 201.8 0 222.1 0 248.4S20.2 295 47.8 295c28.2 0 48.5-19.6 48.5-46.6-.6-27-20.8-46.6-48.5-46.6zm0 84.1c-22.1 0-38.6-15.9-38.6-37.4s16.6-38 38.6-38 38.6 15.9 38.6 38c.1 21.4-16.5 37.4-38.6 37.4zM150.3 222.1c-11.7 0-20.9 5.5-26.4 13.5l-1.8-12.3h-6.7v69.3h9.2V254c0-13.5 10.4-23.9 23.3-23.9 13.5 0 20.9 8.6 20.9 23.3v39.3h9.2V251c-.1-16.7-10.5-28.9-27.7-28.9zM200.6 198.7h9.2v94.5h-9.2zM232.5 223.9h9.2v69.3h-9.2zM231.9 200h10.4v11h-10.4zM298.7 222.1c-11.7 0-20.9 5.5-26.4 13.5l-1.8-12.3h-6.7v69.3h9.2V254c0-13.5 10.4-23.9 23.3-23.9 13.5 0 20.9 8.6 20.9 23.3v39.3h9.2V251c-.1-16.7-10.5-28.9-27.7-28.9zM415.3 258.9c0-20.2-14.1-36.2-35.6-36.2-20.9 0-36.2 15.3-36.2 36.2 0 20.9 15.3 36.2 36.2 36.2 15.3 0 27.6-8 33.7-22.1h-9.2c-4.9 8.6-13.5 13.5-23.9 13.5-14.7 0-25.8-9.8-27-24.5h62v-3.1zm-62.6-4.9c1.8-13.5 12.9-23.3 27-23.3s24.5 9.2 27 23.3h-54zM482.8 250.9h38.6v-8.6h-38.6v-30.7h41.7V203h-51.6v90.2h53.4v-8.6h-43.5zM603.6 236.2c-6.7-8.6-17.2-14.1-29.4-14.1-20.9 0-36.8 15.3-36.8 36.2s15.9 36.2 36.8 36.2c12.3 0 22.7-5.5 29.4-14.1l1.2 12.3h7.4V224h-7.4l-1.2 12.2zm-28.8 50.3c-15.9 0-28.2-11.7-28.2-27.6 0-15.9 12.3-27.6 28.2-27.6S603 243 603 258.9c0 15.9-12.3 27.6-28.2 27.6zM647.8 269.9v-38h23.3v-8h-23.3v-13.5h-1.2L626.9 230v1.8h12.3v38c0 14.7 9.2 23.3 23.9 23.3h9.2v-8h-8c-11 .1-16.5-5.4-16.5-15.2zM715.2 222.1c-20.9 0-36.2 15.3-36.2 36.2s15.3 36.2 36.2 36.2c15.3 0 27.6-8 33.7-22.1h-9.2c-4.9 8.6-13.5 13.5-23.9 13.5-14.7 0-25.8-9.8-27-24.5h62.6v-3.1c-.6-19.7-15.3-36.2-36.2-36.2zM688.3 254c1.8-13.5 12.9-23.3 27-23.3s24.5 9.2 27 23.3h-54zM776.6 235.6l-1.8-11.7H768v69.3h9.2v-38c0-14.1 8-23.3 22.1-23.3h6.7v-8.6h-6.1c-10.4 0-18.4 4.9-23.3 12.3zM877.8 223.9 852 279.1l-27-55.2h-9.8l32.5 65-3.1 6.1c-6.1 12.3-9.8 14.7-19.6 14.7h-5.5v8h6.1c12.9 0 19.6-4.9 27-20.9l35-73.6h-9.8v.7zM98.8 74.2c11.7-6.7 19.6-19 19.6-32.5 0-22.1-20.2-38.6-47.2-38.6H.6v150.3h71.2c28.8 0 50.3-18.4 50.3-42.9 0-16-8.6-29.5-23.3-36.3zM41.7 35.6h21.5c9.2 0 14.7 5.5 14.7 12.9s-5.5 12.9-14.7 12.9H41.7V35.6zm23.3 84H41.7V92H65c9.2 0 15.3 5.5 15.3 13.5.1 8.6-6.1 14.1-15.3 14.1zM269.3 56.4c0-31.3-23.9-53.4-57.7-53.4h-66.9v150.3h42.9v-46H203l25.2 46H276l-30.7-54.6c14.8-8.5 24-23.9 24-42.3zM206.7 73h-19.6V40.5h19.6c11.7 0 19 6.7 19 16.6-.6 8.5-7.3 15.9-19 15.9zM293.2 3.7h42.9V154h-42.9zM430.6 60.1c-14.7-3.7-26.4-6.1-26.4-14.7 0-6.7 7.4-10.4 14.7-10.4 8.6 0 15.9 4.3 15.9 14.1h42.9c0-30.7-21.5-49.1-58.3-49.1s-58.9 17.2-58.9 46.6c0 34.4 28.8 41.1 50.9 46 14.7 3.7 27 6.1 27 15.3 0 8-8.6 12.9-17.2 12.9-9.8 0-18.4-5.5-18.4-15.9h-44.2c0 32.5 24.5 52.1 62.6 52.1 36.2 0 62-17.2 62-49.7.2-34.3-29.9-41.7-52.6-47.2zM492 40.5h41.7V154h42.9V40.5h41.7V3.7H492zM675.4 95.1h50.9V61.3h-50.9v-22h57V3.7H633V154h101.3v-36.2h-58.9zM859.4 99.4c15.3-8.6 24.5-23.9 24.5-42.3 0-31.3-23.9-53.4-57.7-53.4h-66.9V154h42.9v-46h15.3l25.2 46h47.8l-31.1-54.6zm-38-26.4h-19.6V40.5h19.6c11.7 0 19 6.7 19 16.6 0 8.5-7.4 15.9-19 15.9z" class="st0"/></svg>