<?xml version="1.0" encoding="utf-8"?>
<!-- Generator: Adobe Illustrator 27.7.0, SVG Export Plug-In . SVG Version: 6.00 Build 0)  -->
<svg version="1.1" id="Layer_1" xmlns="http://www.w3.org/2000/svg" xmlns:xlink="http://www.w3.org/1999/xlink" x="0px" y="0px"
	 viewBox="0 0 16 16" style="enable-background:new 0 0 16 16;" xml:space="preserve">
<style type="text/css">
	.st0{fill:#FFFFFF;}
</style>
<path class="st0" d="M11.7,7.6L11.7,7.6c1.1-0.7,1.9-1.9,1.9-3.2c0-2.2-2-3.8-4.6-3.8H2.1v14.7h7c2.8,0,4.9-1.8,4.9-4.2
	C13.9,9.6,13.1,8.3,11.7,7.6z M6.1,3.8h2.1c0.9,0,1.4,0.5,1.4,1.3S9.1,6.4,8.2,6.4H6.1V3.8z M8.4,12H6.1V9.3h2.3
	c0.9,0,1.5,0.5,1.5,1.3C9.9,11.5,9.3,12,8.4,12z"/>
</svg>
