<svg xmlns="http://www.w3.org/2000/svg" width="436" height="440" fill="none"><path fill="#032F35" d="M370.701 228.494c0-81.04-63.559-147.515-143.49-152.289v-17.34h4.547c5.094 0 9.217-4.12 9.217-9.209 0-5.089-4.123-9.209-9.217-9.209h-27.516c-5.094 0-9.217 4.12-9.217 9.21 0 5.089 4.123 9.208 9.217 9.208h4.547v17.34c-79.931 4.774-143.49 71.249-143.49 152.289v9.209h305.414v-9.209h-.012Zm-286.665-9.209c4.754-69.698 63.013-124.953 133.958-124.953s129.216 55.255 133.958 124.953H84.036Z"/><path fill="#032F35" d="M426.777 233.608h-28.79l-21.332 18.418H59.345l-21.332-18.418H9.223c-5.094 0-9.217 4.119-9.217 9.209 0 5.089 4.123 9.209 9.217 9.209h21.926l21.332 18.418h331.038l21.332-18.418h21.926c5.094 0 9.217-4.12 9.217-9.209 0-5.09-4.123-9.209-9.217-9.209ZM349.49 115.271c.813 3.926 3.214 5.937 6.306 3.865 3.081-2.072 5.676-7.452 4.863-11.366-5.906-29.08-46.156-35.067-52.062-64.16-.813-3.926-3.214-5.938-6.306-3.865-3.069 2.072-5.676 7.452-4.851 11.365 5.906 29.082 46.156 35.08 52.062 64.161h-.012ZM375.794 95.823c.825 3.926 3.214 5.937 6.306 3.865 3.069-2.072 5.676-7.44 4.863-11.366-5.906-29.093-46.156-35.079-52.062-64.16-.813-3.926-3.214-5.938-6.306-3.866-3.081 2.072-5.676 7.452-4.851 11.366 5.906 29.082 46.156 35.067 52.062 64.16h-.012ZM402.098 76.363c.813 3.926 3.214 5.937 6.306 3.865 3.081-2.072 5.676-7.452 4.863-11.366-5.906-29.093-46.156-35.067-52.062-64.16-.825-3.926-3.214-5.938-6.306-3.866-3.068 2.072-5.676 7.44-4.863 11.378 5.906 29.081 46.156 35.067 52.062 64.16v-.011ZM334.282 294.182c-6.645-.776-14.746 4.107-29.699 13.474-4.524 2.835-9.205 5.756-13.534 8.215-3.723 2.121-9.617 4.884-15.936 7.683-1.612-5.053-4.535-11.015-9.798-14.614-3.311-2.266-8.89-4.519-16.627-2.314-17.5 4.992-43.634 3.381-48.812 2.993l-22.909-8.143c-2.74-1.078-34.138-13.074-56.67-6.107-20.023 6.192-33.75 27.155-37.595 33.625l-68.677 40.654c-3.553 2.108-4.717 6.7-2.607 10.251a7.503 7.503 0 0 0 6.44 3.659 7.42 7.42 0 0 0 3.82-1.054l70.362-41.659.11-.073c.133-.085.254-.169.375-.254.085-.061.158-.121.243-.182a6.4 6.4 0 0 0 .327-.267 4.07 4.07 0 0 0 .255-.23l.254-.254c.085-.097.182-.194.267-.291.073-.073.134-.158.194-.242.097-.122.182-.231.267-.364l.146-.218c.085-.133.17-.279.254-.424.025-.036.037-.061.06-.097.122-.23 12.565-22.926 29.919-28.306 14.916-4.629 38.856 2.593 46.823 5.768l.267.097 24.861 8.833.946.085c1.346.121 33.12 2.86 55.179-3.429 2.571-.739 3.59-.049 4.026.254 1.965 1.333 3.481 4.775 4.378 8.083-.667.351-1.358.678-2.037 1.017a981.866 981.866 0 0 1-13.122 5.32c-24.388 8.191-49.382 8.349-49.697 8.349a7.486 7.486 0 0 0-7.483 7.488 7.475 7.475 0 0 0 7.483 7.476c1.673 0 38.237-.194 68.858-14.94 11.036-4.58 25.734-10.906 33.229-15.171 4.608-2.617 9.423-5.634 14.08-8.555 6.827-4.277 17.087-10.699 20.374-11.244 4.814.605 7.167 2.35 7.846 3.32-6.997 8.639-48.946 45.076-62.213 50.444-3.626 1.466-7.786 3.223-12.248 5.113-17.621 7.452-47.127 19.909-56.999 18.394-27.335-4.18-75.213-10.712-88.832-7.61-14.674 3.357-57.629 46.167-59.86 47.997-3.19 2.617-3.663 7.331-1.043 10.517a7.465 7.465 0 0 0 5.797 2.739 7.464 7.464 0 0 0 4.741-1.696c5.312-4.351 44.156-42.798 53.7-44.98 7.701-1.769 41.148 1.382 83.229 7.816 13.025 1.987 36.2-7.185 65.1-19.4 4.378-1.854 8.465-3.574 12.03-5.016 15.414-6.24 67.84-50.153 71.017-59.471 1.407-4.144.789-8.785-1.71-12.723-3.601-5.683-10.429-9.355-19.197-10.349l.048.013Z"/></svg>